<svg width="23" height="22" viewBox="0 0 23 22" fill="none" xmlns="http://www.w3.org/2000/svg">
<path fill-rule="evenodd" clip-rule="evenodd" d="M0 1.34438C0 0.736872 0.492487 0.244385 1.1 0.244385H3.95366C4.42846 0.244385 4.84967 0.549029 4.99834 0.999951L6.62144 4.9059C6.80178 4.77663 7.02281 4.70053 7.26162 4.70053H21.7616C22.097 4.70053 22.4141 4.85354 22.6228 5.11611C22.8314 5.37867 22.9089 5.7221 22.8332 6.04883L20.9796 14.0488C20.864 14.5475 20.4198 14.9005 19.908 14.9005H8.39576C7.92096 14.9005 7.49975 14.5959 7.35108 14.145L3.15809 2.44438H1.1C0.492487 2.44438 0 1.9519 0 1.34438ZM7.27907 6.90053L9.19134 12.7005H19.0337L20.3776 6.90053H7.27907ZM8.99805 19.8C9.43987 19.8 9.79805 19.4418 9.79805 19C9.79805 18.5582 9.43987 18.2 8.99805 18.2C8.55622 18.2 8.19805 18.5582 8.19805 19C8.19805 19.4418 8.55622 19.8 8.99805 19.8ZM8.99805 22C10.6549 22 11.998 20.6569 11.998 19C11.998 17.3431 10.6549 16 8.99805 16C7.34119 16 5.99805 17.3431 5.99805 19C5.99805 20.6569 7.34119 22 8.99805 22ZM18.798 19C18.798 19.4418 18.4399 19.8 17.998 19.8C17.5562 19.8 17.198 19.4418 17.198 19C17.198 18.5582 17.5562 18.2 17.998 18.2C18.4399 18.2 18.798 18.5582 18.798 19ZM20.998 19C20.998 20.6569 19.6549 22 17.998 22C16.3412 22 14.998 20.6569 14.998 19C14.998 17.3431 16.3412 16 17.998 16C19.6549 16 20.998 17.3431 20.998 19Z" fill="currentColor"/>
</svg>
