<svg width="36" height="26" viewBox="0 0 36 26" fill="none" xmlns="http://www.w3.org/2000/svg">
<path d="M27.189 16.4033C24.6867 16.4033 22.6511 18.4389 22.6511 20.9411C22.6511 23.4434 24.6867 25.479 27.189 25.479C29.6916 25.479 31.7268 23.4434 31.7268 20.9411C31.7268 18.4389 29.6912 16.4033 27.189 16.4033ZM27.189 23.2101C25.9377 23.2101 24.92 22.1924 24.92 20.9411C24.92 19.6899 25.9377 18.6722 27.189 18.6722C28.4402 18.6722 29.4579 19.6899 29.4579 20.9411C29.4579 22.1925 28.4402 23.2101 27.189 23.2101Z" fill="currentColor"/>
<path d="M11.685 16.4033C9.18283 16.4033 7.14722 18.4389 7.14722 20.9411C7.14722 23.4434 9.18283 25.479 11.685 25.479C14.1873 25.479 16.2229 23.4434 16.2229 20.9411C16.2229 18.4389 14.1873 16.4033 11.685 16.4033ZM11.685 23.2101C10.4338 23.2101 9.41613 22.1924 9.41613 20.9411C9.41613 19.6899 10.4338 18.6722 11.685 18.6722C12.936 18.6722 13.954 19.6899 13.954 20.9411C13.954 22.1925 12.9363 23.2101 11.685 23.2101Z" fill="currentColor"/>
<path d="M30.245 3.41464C30.0521 3.03158 29.66 2.78992 29.2311 2.78992H23.2563V5.05883H28.5315L31.6206 11.203L33.6483 10.1835L30.245 3.41464Z" fill="currentColor"/>
<path d="M23.7857 19.8446H15.2017V22.1135H23.7857V19.8446Z" fill="currentColor"/>
<path d="M8.28149 19.8446H4.34878C3.72215 19.8446 3.21436 20.3525 3.21436 20.979C3.21436 21.6057 3.72222 22.1134 4.34878 22.1134H8.28156C8.90819 22.1134 9.41598 21.6056 9.41598 20.979C9.41598 20.3524 8.90812 19.8446 8.28149 19.8446Z" fill="currentColor"/>
<path d="M35.7618 12.9092L33.5304 10.0353C33.316 9.75844 32.9851 9.59658 32.6345 9.59658H24.3908V1.65542C24.3908 1.02879 23.8829 0.520996 23.2564 0.520996H4.34878C3.72215 0.520996 3.21436 1.02886 3.21436 1.65542C3.21436 2.28197 3.72222 2.78984 4.34878 2.78984H22.1219V10.731C22.1219 11.3576 22.6297 11.8654 23.2563 11.8654H32.079L33.7311 13.9936V19.8444H30.5924C29.9658 19.8444 29.458 20.3523 29.458 20.9788C29.458 21.6055 29.9659 22.1133 30.5924 22.1133H34.8655C35.4921 22.1133 35.9999 21.6054 36 20.9788V13.605C36 13.3532 35.9161 13.1081 35.7618 12.9092Z" fill="currentColor"/>
<path d="M8.20573 14.0967H2.98721C2.36058 14.0967 1.85278 14.6045 1.85278 15.2311C1.85278 15.8577 2.36065 16.3655 2.98721 16.3655H8.20566C8.83228 16.3655 9.34008 15.8577 9.34008 15.2311C9.34015 14.6045 8.83228 14.0967 8.20573 14.0967Z" fill="currentColor"/>
<path d="M10.8151 9.6344H1.13442C0.507867 9.6344 0 10.1423 0 10.7689C0 11.3955 0.507867 11.9033 1.13442 11.9033H10.8151C11.4417 11.9033 11.9495 11.3954 11.9495 10.7689C11.9495 10.1423 11.4417 9.6344 10.8151 9.6344Z" fill="currentColor"/>
<path d="M12.6679 5.17224H2.98721C2.36058 5.17224 1.85278 5.68011 1.85278 6.30667C1.85278 6.93329 2.36065 7.44109 2.98721 7.44109H12.6679C13.2945 7.44109 13.8023 6.93322 13.8023 6.30667C13.8024 5.68011 13.2945 5.17224 12.6679 5.17224Z" fill="currentColor"/>
</svg>
