<svg width="23" height="21" viewBox="0 0 23 21" fill="none" xmlns="http://www.w3.org/2000/svg">
<path d="M16.675 0C14.674 0 12.7535 0.926976 11.5 2.39183C10.2465 0.926976 8.326 0 6.325 0C2.783 0 0 2.76948 0 6.29428C0 10.6202 3.91 14.145 9.8325 19.5008L11.5 21L13.1675 19.4894C19.09 14.145 23 10.6202 23 6.29428C23 2.76948 20.217 0 16.675 0ZM11.615 17.7956L11.5 17.9101L11.385 17.7956C5.911 12.8632 2.3 9.60163 2.3 6.29428C2.3 4.00545 4.025 2.28883 6.325 2.28883C8.096 2.28883 9.821 3.4218 10.4305 4.98965H12.581C13.179 3.4218 14.904 2.28883 16.675 2.28883C18.975 2.28883 20.7 4.00545 20.7 6.29428C20.7 9.60163 17.089 12.8632 11.615 17.7956Z" fill="currentColor"/>
</svg>
