<svg width="30" height="30" viewBox="0 0 30 30" fill="none" xmlns="http://www.w3.org/2000/svg">
<path d="M29.8228 10.3501C29.4349 9.20328 28.5029 8.48067 27.6805 7.84258C27.2411 7.50202 26.8261 7.18008 26.5862 6.86455C26.3418 6.5426 26.1486 6.06198 25.9445 5.55267C25.5664 4.61095 25.137 3.54411 24.1437 2.8511C23.1715 2.17181 21.9997 2.10865 20.9658 2.05433C20.3848 2.0229 19.8358 1.9936 19.4178 1.86299C19.0348 1.74429 18.5923 1.46812 18.1242 1.17547C17.2417 0.624355 16.2411 0 14.9994 0C13.7571 0 12.7577 0.624355 11.8758 1.17547C11.407 1.46812 10.9652 1.74368 10.5816 1.8636C10.1641 1.9936 9.61453 2.0229 9.0329 2.05433C7.99963 2.10987 6.82843 2.17181 5.85498 2.8511C4.86229 3.54411 4.43355 4.61095 4.05484 5.55206C3.85069 6.06137 3.65692 6.5426 3.41187 6.86577C3.17202 7.18191 2.757 7.50385 2.31697 7.84441C1.49639 8.48189 0.564439 9.20389 0.177192 10.3495C-0.200289 11.463 0.102734 12.5625 0.370053 13.5323C0.51897 14.0724 0.659648 14.5817 0.659648 14.9992C0.659648 15.4172 0.51897 15.9265 0.370053 16.4673C0.102734 17.4365 -0.199679 18.5356 0.177192 19.6501C0.565049 20.7957 1.49639 21.5174 2.31819 22.1548C2.75761 22.4957 3.17263 22.8173 3.41249 23.1329C3.65692 23.4554 3.85008 23.936 4.05484 24.446C4.43294 25.388 4.8629 26.4548 5.85681 27.1491C6.82904 27.8271 7.99963 27.8897 9.0329 27.944C9.61453 27.9751 10.1641 28.0047 10.5816 28.1347C10.9646 28.254 11.4064 28.5302 11.8739 28.8225C12.7564 29.374 13.7571 29.9983 14.9994 29.9983C16.2417 29.9983 17.2429 29.374 18.1254 28.8225C18.5935 28.5302 19.0354 28.2546 19.4184 28.1347C19.8358 28.0047 20.3854 27.9751 20.967 27.944C22.0003 27.8891 23.1709 27.8265 24.1437 27.1484C25.1376 26.4548 25.5664 25.3868 25.9457 24.4441C26.1499 23.9354 26.343 23.4542 26.5862 23.1338C26.8261 22.8173 27.2411 22.4957 27.6805 22.1554C28.5023 21.518 29.4349 20.7957 29.8228 19.6501C30.2002 18.5356 29.8966 17.4365 29.6293 16.4664C29.4798 15.9265 29.3391 15.416 29.3391 14.9986C29.3391 14.5811 29.4798 14.0709 29.6293 13.531C29.8966 12.5625 30.1996 11.4624 29.8228 10.3501ZM27.2194 17.1316C27.3992 17.7853 27.5862 18.4615 27.455 18.8481C27.3085 19.2815 26.7193 19.7383 26.1493 20.1801C25.6012 20.6049 25.0351 21.0437 24.5951 21.6232C24.1489 22.2113 23.8825 22.8732 23.6259 23.5125C23.3528 24.1905 23.0952 24.8311 22.7126 25.0984C22.3259 25.3691 21.6015 25.4072 20.834 25.4484C20.1242 25.4866 19.3903 25.5253 18.6753 25.7484C17.9847 25.9635 17.3836 26.3386 16.8016 26.7017C16.1455 27.1115 15.5261 27.4985 14.9994 27.4985C14.4733 27.4985 13.8538 27.1115 13.1983 26.7029C12.6164 26.3398 12.0152 25.9635 11.3246 25.749C10.609 25.5259 9.87575 25.4866 9.16595 25.449C8.39847 25.4084 7.67403 25.3697 7.288 25.0999C6.90472 24.8323 6.64747 24.1918 6.37436 23.5137C6.1168 22.8744 5.8504 22.2119 5.40304 21.6232C4.96422 21.0444 4.39815 20.6049 3.85008 20.1801C3.28066 19.7389 2.6914 19.2815 2.54492 18.8487C2.4137 18.4615 2.60015 17.7853 2.77989 17.1307C2.95749 16.4865 3.1589 15.7553 3.1589 14.9998C3.1589 14.2442 2.95749 13.5136 2.77989 12.8685C2.60015 12.2149 2.4137 11.5393 2.54492 11.1511C2.6914 10.7187 3.28005 10.2619 3.84947 9.82062C4.39754 9.39492 4.96483 8.95519 5.40304 8.37691C5.8504 7.78765 6.11741 7.12515 6.37497 6.48523C6.64747 5.80778 6.90472 5.16786 7.28617 4.90146C7.67403 4.63017 8.39908 4.59142 9.16656 4.55022C9.87575 4.51208 10.609 4.47271 11.324 4.25086C12.0152 4.03603 12.617 3.65977 13.1995 3.29663C13.855 2.88589 14.4739 2.49986 14.9994 2.49986C15.5255 2.49986 16.1443 2.88589 16.8004 3.29541C17.383 3.65916 17.9847 4.03542 18.6753 4.24903C19.3909 4.47149 20.1236 4.51147 20.8328 4.549C21.6003 4.58959 22.3253 4.62834 22.7126 4.90024C23.0952 5.16725 23.3519 5.80656 23.6244 6.48401C23.8819 7.12393 24.1483 7.78643 24.5957 8.37569C25.0351 8.95366 25.6012 9.39309 26.1493 9.81818C26.7187 10.2594 27.3079 10.7169 27.455 11.1505C27.5862 11.5374 27.3992 12.2131 27.2194 12.8667C27.0412 13.5118 26.8392 14.243 26.8392 14.9992C26.8392 15.7553 27.0412 16.4865 27.2194 17.1316Z" fill="currentColor"/>
<path d="M20.6242 15.0009C20.6242 18.1026 18.1012 20.6256 14.9995 20.6256C11.8979 20.6256 9.37486 18.1026 9.37486 15.0009C9.37486 11.8993 11.8979 9.37626 14.9995 9.37626H16.2495V6.8764H14.9995C10.5198 6.8764 6.875 10.5212 6.875 15.0009C6.875 19.4807 10.5198 23.1255 14.9995 23.1255C19.4793 23.1255 23.1241 19.4807 23.1241 15.0009V13.751H20.6242V15.0009Z" fill="currentColor"/>
<path d="M13.7494 11.9811L11.9819 13.7485L14.9993 16.7656L21.7665 9.99874L19.9991 8.23126L14.9993 13.231L13.7494 11.9811Z" fill="currentColor"/>
</svg>
