<svg width="21" height="21" viewBox="0 0 21 21" fill="none" xmlns="http://www.w3.org/2000/svg">
<path d="M5.3 0H15.2C16.7 0 18 0.6 18.9 1.6C19.9 2.6 20.5 3.9 20.5 5.3V15.2C20.5 16.7 19.9 18 18.9 18.9C17.9 19.9 16.6 20.5 15.2 20.5H5.3C3.8 20.5 2.5 19.9 1.6 18.9C0.6 17.9 0 16.6 0 15.2V5.3C0 3.8 0.6 2.5 1.6 1.6C2.5 0.6 3.8 0 5.3 0ZM15.2 4.1C15.9 4.1 16.6 4.7 16.6 5.5C16.6 6.2 16 6.9 15.2 6.9C14.5 6.9 13.8 6.3 13.8 5.5C13.8 4.7 14.4 4.1 15.2 4.1ZM10.3 5.3C11.7 5.3 12.9 5.9 13.8 6.8C14.7 7.7 15.3 8.9 15.3 10.3C15.3 11.7 14.7 12.9 13.8 13.8C12.9 14.7 11.7 15.3 10.3 15.3C8.9 15.3 7.7 14.7 6.8 13.8C5.9 12.9 5.3 11.7 5.3 10.3C5.3 8.9 5.9 7.7 6.8 6.8C7.6 5.8 8.9 5.3 10.3 5.3ZM11.7 8.8C11.3 8.4 10.8 8.2 10.3 8.2C9.8 8.2 9.3 8.4 8.9 8.8C8.5 9.2 8.3 9.7 8.3 10.2C8.3 10.7 8.5 11.2 8.9 11.6C9.3 12 9.8 12.2 10.3 12.2C10.8 12.2 11.3 12 11.7 11.6C12.1 11.2 12.3 10.7 12.3 10.2C12.2 9.7 12 9.2 11.7 8.8ZM15.2 3H5.3C4.7 3 4.1 3.3 3.7 3.7C3.3 4.1 3 4.7 3 5.3V15.2C3 15.8 3.3 16.4 3.7 16.8C4.1 17.2 4.7 17.5 5.3 17.5H15.2C15.8 17.5 16.4 17.2 16.8 16.8C17.2 16.4 17.5 15.8 17.5 15.2V5.3C17.5 4.7 17.2 4.1 16.8 3.7C16.4 3.3 15.8 3 15.2 3Z" fill="currentColor"/>
</svg>
