<svg width="14" height="20" viewBox="0 0 14 20" fill="none" xmlns="http://www.w3.org/2000/svg">
<path d="M6.01588 14.0875C4.46541 13.9258 3.06744 13.5439 1.87055 12.6078C1.72204 12.4914 1.56871 12.3791 1.43319 12.249C0.909312 11.7459 0.856527 11.1696 1.27106 10.5758C1.62569 10.0676 2.22099 9.93168 2.83975 10.2235C2.95956 10.28 3.07372 10.3506 3.18306 10.4264C5.41366 11.9591 8.47794 12.0014 10.7169 10.4954C10.9387 10.3253 11.1759 10.1866 11.4507 10.1158C11.985 9.9786 12.4833 10.1749 12.7701 10.6424C13.0977 11.1763 13.0935 11.6975 12.6899 12.112C12.0707 12.7475 11.326 13.2073 10.4987 13.5282C9.7163 13.8315 8.85938 13.9842 8.01125 14.0856C8.13923 14.2249 8.19956 14.2934 8.27958 14.3738C9.43122 15.5309 10.5879 16.6832 11.7358 17.8438C12.1268 18.2393 12.2085 18.7297 11.9932 19.1896C11.7578 19.6924 11.2307 20.0231 10.714 19.9877C10.3866 19.9651 10.1313 19.8021 9.9044 19.5736C9.03533 18.6991 8.14992 17.8407 7.29844 16.9496C7.05064 16.6905 6.93145 16.7395 6.71277 16.9645C5.83846 17.8646 4.94991 18.7508 4.05612 19.632C3.65478 20.0277 3.1772 20.0989 2.71177 19.8729C2.21701 19.6331 1.90218 19.1281 1.92648 18.6205C1.94324 18.2772 2.11206 18.015 2.34771 17.7797C3.48742 16.6417 4.62398 15.5007 5.76096 14.3608C5.83616 14.285 5.90633 14.2046 6.01588 14.0875Z" fill="currentColor"/>
<path d="M6.96043 10.1233C4.19443 10.1139 1.92634 7.82084 1.94247 5.05045C1.95839 2.24947 4.22795 -0.00773033 7.02117 1.98985e-05C9.82005 0.00756066 12.0666 2.29723 12.0525 5.12732C12.0383 7.89206 9.75449 10.1329 6.96043 10.1233ZM9.47423 5.05715C9.46941 3.68159 8.3739 2.5865 7.00106 2.58525C5.61671 2.58378 4.51136 3.69877 4.52204 5.0869C4.5323 6.45722 5.63723 7.54456 7.01384 7.53953C8.38626 7.53471 9.47883 6.4325 9.47423 5.05715Z" fill="currentColor"/>
</svg>
