<svg width="19" height="20" viewBox="0 0 19 20" fill="none" xmlns="http://www.w3.org/2000/svg">
<path fill-rule="evenodd" clip-rule="evenodd" d="M18.704 18.234C18.8857 18.4314 18.9841 18.6914 18.9786 18.9597C18.9731 19.2279 18.8641 19.4837 18.6744 19.6735C18.4848 19.8632 18.2291 19.9724 17.9609 19.9781C17.6926 19.9838 17.4325 19.8856 17.235 19.704L13.296 15.765C13.245 15.714 13.219 15.65 13.181 15.592C11.7932 16.5118 10.1649 17.0016 8.5 17C6.81886 17 5.17547 16.5015 3.77766 15.5675C2.37984 14.6335 1.29037 13.306 0.647028 11.7528C0.00368291 10.1996 -0.164645 8.49057 0.163329 6.84174C0.491303 5.1929 1.30085 3.67834 2.4896 2.4896C3.67834 1.30085 5.1929 0.491303 6.84174 0.163329C8.49057 -0.164645 10.1996 0.00368291 11.7528 0.647028C13.306 1.29037 14.6335 2.37984 15.5675 3.77766C16.5015 5.17547 17 6.81886 17 8.5C17.0005 10.6419 16.1886 12.7043 14.728 14.271C14.739 14.281 14.754 14.285 14.765 14.296L18.704 18.234ZM8.5 2C6.7761 2 5.1228 2.68482 3.90381 3.90381C2.68482 5.1228 2 6.7761 2 8.5C2 10.2239 2.68482 11.8772 3.90381 13.0962C5.1228 14.3152 6.7761 15 8.5 15C10.2239 15 11.8772 14.3152 13.0962 13.0962C14.3152 11.8772 15 10.2239 15 8.5C15 6.7761 14.3152 5.1228 13.0962 3.90381C11.8772 2.68482 10.2239 2 8.5 2Z" fill="currentColor"/>
</svg>
