<svg width="22" height="18" viewBox="0 0 22 18" fill="none" xmlns="http://www.w3.org/2000/svg">
<path d="M21.5545 0.787128C21.2067 0.532691 20.7408 0.511038 20.3691 0.727579C19.9986 0.945203 19.1772 1.05239 18.5184 1.13901C18.3819 1.15741 18.2475 1.17474 18.1175 1.19314C17.1954 0.428752 16.0175 0 14.8029 0C12.0669 0 9.82175 2.11561 9.66246 4.7769C7.18111 4.35898 4.90888 3.06623 3.29871 1.12385C3.05924 0.833684 2.68758 0.69185 2.31267 0.740571C1.93992 0.792541 1.62135 1.03399 1.47074 1.37829C1.40139 1.53636 0.796764 3.02292 0.796764 6.69979C0.796764 9.88403 3.31171 12.2238 5.03674 13.4548C3.85674 13.9907 2.49687 14.1878 1.20527 14.0449C0.700327 13.9907 0.227895 14.2874 0.0610264 14.7627C-0.105842 15.2391 0.0783632 15.7675 0.505286 16.0371C2.54238 17.3211 4.89696 18 7.31547 18C15.0824 18 19.7829 11.9033 19.9574 5.89209C20.1806 5.56836 20.6064 4.93823 21.3259 3.83278C21.6141 3.38779 21.8558 2.42851 21.9739 1.8969C22.0682 1.47681 21.9024 1.04048 21.5545 0.787128ZM18.0026 4.90791C17.8694 5.09197 17.7968 5.31501 17.7968 5.54238C17.7968 9.81582 14.545 15.8346 7.31655 15.8346C6.66316 15.8346 6.01519 15.775 5.38023 15.6581C6.22757 15.3376 7.02833 14.8905 7.76406 14.3242C8.05879 14.0979 8.21591 13.7341 8.18123 13.3649C8.14656 12.9957 7.92443 12.6688 7.59178 12.5009C7.54518 12.4771 2.96497 10.0703 2.96497 6.70087C2.96497 5.57161 3.02565 4.68379 3.10583 4.00818C5.23286 5.83796 7.9396 6.93257 10.7883 7.07332C10.81 7.07441 10.8327 7.07549 10.8533 7.07441C11.4839 7.056 11.9477 6.59368 11.9477 5.9917C11.9477 5.84229 11.9174 5.70045 11.8621 5.57053C11.835 5.40812 11.8209 5.24463 11.8209 5.08114C11.8209 3.47332 13.158 2.16541 14.8029 2.16541C15.6285 2.16541 16.4228 2.50322 16.983 3.09113C17.2387 3.35747 17.6126 3.47765 17.9734 3.40728C18.2193 3.36072 18.5032 3.32391 18.8012 3.28493C18.9074 3.27086 19.0147 3.25678 19.1241 3.24162C18.3104 4.48024 18.0167 4.88842 18.0026 4.90791Z" fill="currentColor"/>
</svg>
