<svg width="24" height="24" viewBox="0 0 24 24" fill="none" xmlns="http://www.w3.org/2000/svg">
<path fill-rule="evenodd" clip-rule="evenodd" d="M19.4249 20.7079C17.3885 19.0599 14.7953 18.0728 11.9716 18.0728C9.0604 18.0728 6.39426 19.122 4.33069 20.8629L2.83203 19.5141C5.27146 17.3717 8.46983 16.0728 11.9716 16.0728C15.3478 16.0728 18.442 17.2802 20.8459 19.2869L19.4249 20.7079Z" fill="currentColor"/>
<circle cx="12" cy="12" r="4" stroke="currentColor" stroke-width="2"/>
<path d="M12 24C18.617 24 24 18.617 24 12C24 5.383 18.617 0 12 0C5.383 0 0 5.383 0 12C0 18.617 5.383 24 12 24ZM12 1.5C17.79 1.5 22.5 6.21 22.5 12C22.5 17.79 17.79 22.5 12 22.5C6.21 22.5 1.5 17.79 1.5 12C1.5 6.21 6.21 1.5 12 1.5Z" fill="currentColor"/>
</svg>
