<svg width="86" height="89" viewBox="0 0 86 89" fill="none" xmlns="http://www.w3.org/2000/svg">
<path d="M76.5232 82H36.541C31.6887 82 27.7449 77.9217 27.7449 72.9041V31.5588C27.7449 26.5411 31.6887 22.4628 36.541 22.4628H42.9381C43.3699 22.4628 43.5715 22.175 43.6546 22.0064C43.7378 21.8377 43.8369 21.497 43.5779 21.1431L38.7768 14.5245C37.8364 13.2246 37.3406 11.68 37.3406 10.0592C37.3406 5.95777 40.568 2.61707 44.5374 2.61707H68.5268C72.4962 2.61707 75.7236 5.95777 75.7236 10.0592C75.7236 11.68 75.2278 13.2246 74.2874 14.5212L69.4896 21.1431C69.2305 21.497 69.3296 21.8377 69.4128 22.0097C69.4928 22.175 69.6943 22.4628 70.1261 22.4628H76.5232C81.3755 22.4628 85.3193 26.5411 85.3193 31.5588V72.9041C85.3193 77.9217 81.3755 82 76.5232 82ZM36.541 27.4242C34.3371 27.4242 32.5427 29.2798 32.5427 31.5588V72.9041C32.5427 75.183 34.3371 77.0386 36.541 77.0386H76.5232C78.7271 77.0386 80.5215 75.183 80.5215 72.9041V31.5588C80.5215 29.2798 78.7271 27.4242 76.5232 27.4242H70.1261C67.9926 27.4242 66.0735 26.1971 65.1203 24.2225C64.1671 22.2478 64.3686 19.9259 65.6481 18.1629L70.4459 11.5443C70.7594 11.1144 70.9257 10.6017 70.9257 10.0592C70.9257 8.69317 69.851 7.5785 68.5268 7.5785H44.5374C43.2132 7.5785 42.1385 8.69317 42.1385 10.0592C42.1385 10.6017 42.3048 11.1144 42.6151 11.5477L47.413 18.1629C48.6924 19.9259 48.8971 22.2478 47.9439 24.2225C46.9907 26.1971 45.0716 27.4242 42.9381 27.4242H36.541Z" fill="#E3D7D7"/>
<path d="M40.3178 2.61707C37.6824 2.61707 35.5452 4.78268 35.5452 7.45315C35.5452 8.53928 35.8992 9.54569 36.4958 10.3528L41.2717 16.8031C42.8451 18.9289 41.3471 21.9614 38.728 21.9614H32.3624C28.8485 21.9614 26 24.8478 26 28.4084V70.319C26 73.8796 28.8485 76.766 32.3624 76.766H73.7227C77.2366 76.766 80.0851 73.8796 80.0851 70.319V28.4084C80.0851 24.8478 77.2366 21.9614 73.7227 21.9614H67.3604C64.738 21.9614 63.2433 18.9289 64.8167 16.8031L69.5926 10.3528C70.1892 9.54569 70.5432 8.5426 70.5432 7.45315C70.5432 4.78268 68.406 2.61707 65.7706 2.61707H40.3178Z" fill="#83B659"/>
<path d="M69.102 11.4818L69.1018 11.4821L64.5967 18.101C64.5964 18.1015 64.5961 18.102 64.5957 18.1025C64.1425 18.7629 64.3276 19.4119 64.4597 19.7028L65.1426 19.3926L64.4597 19.7028C64.5808 19.9693 64.9656 20.5957 65.8126 20.5957H71.8221C75.8999 20.5957 79.3351 24.2689 79.3351 28.9417V70.287C79.3351 74.9599 75.8999 78.633 71.8221 78.633H34.263C30.1852 78.633 26.75 74.9599 26.75 70.287V28.9417C26.75 24.2688 30.1852 20.5957 34.263 20.5957H40.2725C41.1209 20.5957 41.5045 19.967 41.6261 19.7045L40.9455 19.3893L41.6261 19.7045C41.7619 19.4112 41.945 18.7619 41.4923 18.1023C41.492 18.1019 41.4917 18.1014 41.4914 18.101L36.9836 11.4859C36.9836 11.4858 36.9835 11.4857 36.9835 11.4857C36.1877 10.3146 35.7642 8.91791 35.7642 7.44215C35.7642 3.68528 38.5265 0.75 41.7748 0.75H64.3103C67.5586 0.75 70.3209 3.68528 70.3209 7.44215C70.3209 8.91818 69.8973 10.3146 69.102 11.4818ZM62.2257 15.9683L62.2259 15.968L66.7319 9.35104C66.7321 9.35078 66.7323 9.35051 66.7325 9.35025C67.1151 8.79111 67.3138 8.12996 67.3138 7.44215C67.3138 5.73198 66.0352 4.21144 64.3103 4.21144H41.7748C40.0499 4.21144 38.7713 5.73198 38.7713 7.44215C38.7713 8.13063 38.9703 8.7896 39.3467 9.34918L39.3467 9.34919L39.3492 9.35288L43.8563 15.9681L43.8564 15.9683C44.9082 17.5112 45.081 19.5552 44.2918 21.2957C43.5053 23.0301 41.9529 24.0572 40.2725 24.0572H34.263C31.7124 24.0572 29.7571 26.318 29.7571 28.9417V70.287C29.7571 72.9108 31.7124 75.1715 34.263 75.1715H71.8221C74.3727 75.1715 76.328 72.9108 76.328 70.287V28.9417C76.328 26.3179 74.3727 24.0572 71.8221 24.0572H65.8126C64.1322 24.0572 62.5798 23.0301 61.7933 21.2957C61.0037 19.5544 61.1743 17.5105 62.2257 15.9683Z" fill="white" stroke="white" stroke-width="1.5"/>
<path d="M46.634 31.0688C46.634 30.3985 46.7644 29.8026 47.0251 29.2813C47.2857 28.7558 47.6602 28.3523 48.1485 28.071C48.6367 27.7896 49.2098 27.6489 49.8677 27.6489C50.8732 27.6489 51.6656 27.9613 52.2449 28.5861C52.8241 29.2068 53.1138 30.053 53.1138 31.1247V31.1991C53.1138 32.246 52.8221 33.0777 52.2386 33.6942C51.6594 34.3066 50.8732 34.6128 49.8801 34.6128C48.9243 34.6128 48.1567 34.3273 47.5774 33.7563C46.9982 33.1811 46.6858 32.4032 46.6402 31.4226L46.634 31.0688ZM48.7257 31.1991C48.7257 31.8198 48.8229 32.275 49.0174 32.5646C49.2119 32.8542 49.4994 32.9991 49.8801 32.9991C50.6249 32.9991 51.0056 32.426 51.0221 31.2798V31.0688C51.0221 29.8647 50.6373 29.2627 49.8677 29.2627C49.1684 29.2627 48.7898 29.7819 48.7319 30.8205L48.7257 31.1991Z" fill="white"/>
<path d="M59.7301 29.3744H57.6136V34.4887H55.5096V29.3744H53.4241V27.7731H59.7301V29.3744Z" fill="white"/>
<path d="M45.3229 54.7861H41.6287V43.2781L38 44.3155V41.5775L44.9841 39.2139H45.3229V54.7861Z" fill="white"/>
<path d="M58.5969 48.4225C58.5969 50.5258 58.1124 52.148 57.1433 53.2888C56.1814 54.4296 54.8225 55 53.0665 55C51.2958 55 49.926 54.426 48.9569 53.2781C47.9878 52.1301 47.5032 50.5116 47.5032 48.4225V45.5775C47.5032 43.4742 47.9841 41.852 48.9459 40.7112C49.915 39.5704 51.2813 39 53.0446 39C54.8079 39 56.1741 39.574 57.1433 40.7219C58.1124 41.8699 58.5969 43.492 58.5969 45.5882V48.4225ZM54.9136 45.1176C54.9136 43.9982 54.7642 43.164 54.4655 42.615C54.1667 42.0588 53.6931 41.7807 53.0446 41.7807C52.4107 41.7807 51.948 42.0374 51.6565 42.5508C51.3723 43.0642 51.2193 43.8414 51.1975 44.8824V48.861C51.1975 50.0232 51.3468 50.8752 51.6456 51.4171C51.9443 51.9519 52.418 52.2193 53.0665 52.2193C53.6931 52.2193 54.1558 51.959 54.4545 51.4385C54.7533 50.9109 54.9063 50.0873 54.9136 48.9679V45.1176Z" fill="white"/>
<path d="M71 48.4225C71 50.5258 70.5154 52.148 69.5463 53.2888C68.5845 54.4296 67.2256 55 65.4695 55C63.6989 55 62.3291 54.426 61.36 53.2781C60.3908 52.1301 59.9063 50.5116 59.9063 48.4225V45.5775C59.9063 43.4742 60.3872 41.852 61.349 40.7112C62.3181 39.5704 63.6843 39 65.4477 39C67.211 39 68.5772 39.574 69.5463 40.7219C70.5154 41.8699 71 43.492 71 45.5882V48.4225ZM67.3167 45.1176C67.3167 43.9982 67.1673 43.164 66.8686 42.615C66.5698 42.0588 66.0962 41.7807 65.4477 41.7807C64.8138 41.7807 64.3511 42.0374 64.0596 42.5508C63.7754 43.0642 63.6224 43.8414 63.6006 44.8824V48.861C63.6006 50.0232 63.7499 50.8752 64.0487 51.4171C64.3474 51.9519 64.821 52.2193 65.4695 52.2193C66.0962 52.2193 66.5589 51.959 66.8576 51.4385C67.1564 50.9109 67.3094 50.0873 67.3167 48.9679V45.1176Z" fill="white"/>
<path d="M42.3745 61.5823H39.4278V67.0985H37.7939V60.3208H42.3745V61.5823Z" fill="white"/>
<path d="M44.7532 64.7989V67.0985H43.1193V60.3208H45.8238C46.3421 60.3208 46.7998 60.417 47.197 60.6094C47.5974 60.7987 47.9062 61.0703 48.1234 61.424C48.3437 61.7747 48.4539 62.1735 48.4539 62.6204C48.4539 63.2814 48.2165 63.8105 47.7417 64.2077C47.27 64.6018 46.6214 64.7989 45.7959 64.7989H44.7532ZM44.7532 63.5374H45.8238C46.1404 63.5374 46.3809 63.4583 46.5453 63.3C46.7129 63.1417 46.7967 62.9183 46.7967 62.6297C46.7967 62.3131 46.7114 62.0602 46.5407 61.8709C46.37 61.6816 46.1373 61.5854 45.8424 61.5823H44.7532V63.5374Z" fill="white"/>
<path d="M52.3501 65.8323H50.1111L49.72 67.0985H47.9744L50.4602 60.3208H51.9963L54.5007 67.0985H52.7458L52.3501 65.8323ZM50.5021 64.5708H51.9591L51.2283 62.22L50.5021 64.5708Z" fill="white"/>
<path d="M57.1448 60.3208L58.6576 65.0363L60.1659 60.3208H62.3165V67.0985H60.6779V65.5158L60.8362 62.2759L59.1976 67.0985H58.1177L56.4744 62.2712L56.6327 65.5158V67.0985H54.9988V60.3208H57.1448Z" fill="white"/>
<path d="M65.5051 60.3208L67.018 65.0363L68.5262 60.3208H70.6768V67.0985H69.0383V65.5158L69.1966 62.2759L67.558 67.0985H66.478L64.8348 62.2712L64.9931 65.5158V67.0985H63.3592V60.3208H65.5051Z" fill="white"/>
<circle cx="18.1176" cy="70.1176" r="18.1176" fill="white"/>
<path d="M32.2083 70.5C32.2083 78.0709 26.0709 84.2083 18.5 84.2083C10.9291 84.2083 4.79167 78.0709 4.79167 70.5C4.79167 62.9291 10.9291 56.7917 18.5 56.7917C26.0709 56.7917 32.2083 62.9291 32.2083 70.5ZM18.5 86.5C27.3366 86.5 34.5 79.3366 34.5 70.5C34.5 61.6634 27.3366 54.5 18.5 54.5C9.66344 54.5 2.5 61.6634 2.5 70.5C2.5 79.3366 9.66344 86.5 18.5 86.5Z" fill="#83B659" stroke="#83B659"/>
<path fill-rule="evenodd" clip-rule="evenodd" d="M24.5799 67.0033C25.0844 67.5078 25.0843 68.3256 24.5799 68.83L17.2079 76.2018L12.4196 71.4135C11.9152 70.9091 11.9152 70.0912 12.4196 69.5868C12.924 69.0824 13.7418 69.0824 14.2463 69.5868L17.2079 72.5485L22.7532 67.0033C23.2577 66.4989 24.0755 66.4989 24.5799 67.0033Z" fill="#458900"/>
</svg>
