<svg width="34" height="30" viewBox="0 0 34 30" fill="none" xmlns="http://www.w3.org/2000/svg">
<path d="M9.27317 10.9418C11.1063 10.9418 12.5976 9.45049 12.5976 7.61741C12.5976 5.78432 11.1063 4.29297 9.27317 4.29297C7.44008 4.29297 5.94873 5.78432 5.94873 7.61741C5.94873 9.45049 7.44008 10.9418 9.27317 10.9418ZM9.27317 6.29023C10.005 6.29023 10.6003 6.88561 10.6003 7.61741C10.6003 8.3492 10.005 8.94458 9.27317 8.94458C8.54137 8.94458 7.94599 8.3492 7.94599 7.61741C7.94599 6.88561 8.54137 6.29023 9.27317 6.29023Z" fill="#7A321C"/>
<path d="M30.629 20.6325H29.274C29.3098 20.4402 29.3906 20.2083 29.5555 19.9527C30.0632 19.1659 30.1718 18.4711 30.2675 17.858C30.3279 17.4716 30.385 17.1067 30.5401 16.6857C30.6775 16.3128 30.9419 16.0098 31.2126 15.779L32.1493 18.088L34 17.3371L30.651 9.05592L29.8374 9.22056C29.7445 9.23933 27.5469 9.71015 26.1727 12.2548C25.1697 14.1121 22.9116 15.5542 20.1643 16.1321L19.6167 14.1232L18.6403 14.409C16.7519 14.9616 15.7899 15.4496 13.8576 16.6354C13.1973 17.0406 12.3164 17.2893 11.2249 17.3814C11.7106 16.7292 13.036 14.9776 13.036 14.9776C14.3944 13.2004 16.2549 10.7664 16.2549 7.61743C16.2549 3.76771 13.1229 0.635742 9.27321 0.635742C5.42349 0.635742 2.29145 3.76771 2.29145 7.61743C2.29145 10.7664 4.15183 13.2004 5.5103 14.9776C5.5103 14.9776 6.74541 16.6088 7.20831 17.2296C5.64572 17.2032 4.42845 17.6238 3.50552 18.5049C2.42893 19.5328 1.99067 21.2336 2.33686 22.7895L0 24.3436L2.76287 29.3403H4.1031L5.13861 28.1749C6.18371 26.9989 7.68539 26.3244 9.25863 26.3244C10.5857 26.3244 11.8708 26.8055 12.8771 27.679C14.0225 28.6732 15.1349 29.2305 16.1835 29.3353C16.382 29.3552 16.5705 29.3642 16.7503 29.3642C17.7231 29.3642 18.4387 29.1005 19.0819 28.8635C19.8069 28.5963 20.3798 28.3853 21.3441 28.5103C21.7515 28.5631 22.1224 28.5884 22.4622 28.5884C24.368 28.5883 25.2815 27.7935 26.0012 26.6126C26.2498 26.2046 26.5969 25.969 26.9278 25.8658C27.6608 25.6373 28.5898 26.6086 28.5898 26.6086L30.4767 25.6811C30.8124 26.6051 30.983 27.5715 30.983 28.558H32.9803C32.9803 27.2252 32.7293 25.9218 32.2344 24.6843L30.629 20.6325ZM9.27314 2.633C12.0216 2.633 14.2576 4.869 14.2576 7.61743C14.2576 10.0905 12.7004 12.1278 11.4492 13.7647C11.4492 13.7647 9.80974 15.9359 9.27307 16.6593C8.73641 15.9359 7.09699 13.7647 7.09699 13.7647C5.84578 12.1278 4.28858 10.0905 4.28858 7.61743C4.28871 4.869 6.52471 2.633 9.27314 2.633ZM28.7585 24.3001C27.8558 23.8044 27.0741 23.8019 26.5442 23.9057C25.6419 24.0823 24.8434 24.6745 24.2959 25.573C23.9001 26.2225 23.5581 26.7834 21.601 26.5296C20.149 26.3415 19.2154 26.6856 18.3913 26.9894C17.7242 27.2352 17.1973 27.4295 16.3822 27.3479C15.7614 27.2859 15.0021 26.8787 14.1863 26.1706C12.8167 24.9818 11.0667 24.327 9.25863 24.327C7.12196 24.327 5.08216 25.2402 3.65891 26.8332L2.63831 24.9875L4.75707 23.5784L4.43312 22.8156C3.95524 21.6902 4.30909 20.4989 4.8847 19.9494C5.54479 19.3192 6.47684 19.1117 7.90675 19.2767C11.0021 19.6338 13.2904 19.3266 14.9022 18.3375C16.3373 17.4569 17.1286 17.0224 18.2312 16.6346L18.7074 18.3816L19.5775 18.2604C23.3839 17.7305 26.5063 15.8401 27.93 13.2036C28.4128 12.3097 29.0174 11.7974 29.4881 11.5113L30.4359 13.8645C29.8179 14.2772 29.0445 14.9675 28.6659 15.995C28.4422 16.6022 28.3635 17.1055 28.2942 17.5495C28.2105 18.085 28.1552 18.4388 27.8772 18.8696C26.8035 20.5334 27.4197 21.9149 27.4935 22.0669L27.7666 22.6296H29.2688L29.7372 23.8187L28.7585 24.3001Z" fill="#7A321C"/>
</svg>
