<svg width="32" height="40" viewBox="0 0 32 40" fill="none" xmlns="http://www.w3.org/2000/svg">
<path d="M16.0001 3.23607L16.6615 5.27151C16.9293 6.09555 17.6972 6.65348 18.5636 6.65348L20.7038 6.65348L18.9724 7.91145C18.2714 8.42074 17.9781 9.32347 18.2458 10.1475L18.9072 12.183L17.1757 10.925C16.4747 10.4157 15.5256 10.4157 14.8246 10.925L13.0931 12.183L13.7545 10.1475C14.0222 9.32347 13.7289 8.42074 13.0279 7.91145L11.2965 6.65348L13.4367 6.65348C14.3031 6.65348 15.071 6.09556 15.3388 5.27151L16.0001 3.23607Z" stroke="#7A321C" stroke-width="2" stroke-linejoin="round"/>
<path d="M15.0017 11.9091L16.9985 11.9091L18.4167 18.9999L13.5836 18.9999L15.0017 11.9091Z" stroke="#7A321C" stroke-width="2" stroke-linejoin="round"/>
<path d="M25.1819 24.894L26.5206 26.0355C27.2682 26.673 28.3682 26.673 29.1159 26.0355L30.4546 24.894L30.4546 30.818H25.1819L25.1819 24.894Z" stroke="#7A321C" stroke-width="2" stroke-linejoin="round"/>
<path d="M7 24.894L8.33869 26.0355C9.08635 26.673 10.1864 26.673 10.934 26.0355L12.2727 24.894L12.2727 30.818H7L7 24.894Z" stroke="#7A321C" stroke-width="2" stroke-linejoin="round"/>
<path d="M19.7273 25.4065L21.2305 26.3125C21.9675 26.7566 22.9059 26.6797 23.5606 26.1214L25 24.894L25 30.818H19.7273L19.7273 25.4065Z" stroke="#7A321C" stroke-width="2" stroke-linejoin="round"/>
<path d="M1.54565 25.4065L3.04891 26.3125C3.78583 26.7566 4.72422 26.6797 5.37893 26.1214L6.81836 24.894L6.81836 30.818H1.54565L1.54565 25.4065Z" stroke="#7A321C" stroke-width="2" stroke-linejoin="round"/>
<mask id="path-7-inside-1" fill="white">
<path fill-rule="evenodd" clip-rule="evenodd" d="M1.0239 29.9999C0.264085 29.9999 -0.211339 30.8112 0.209519 31.4438C3.64541 36.6084 9.43552 39.9998 15.9993 39.9998C22.5631 39.9998 28.3532 36.6084 31.7891 31.4438C32.21 30.8112 31.7346 29.9999 30.9747 29.9999H1.0239Z"/>
</mask>
<path fill-rule="evenodd" clip-rule="evenodd" d="M1.0239 29.9999C0.264085 29.9999 -0.211339 30.8112 0.209519 31.4438C3.64541 36.6084 9.43552 39.9998 15.9993 39.9998C22.5631 39.9998 28.3532 36.6084 31.7891 31.4438C32.21 30.8112 31.7346 29.9999 30.9747 29.9999H1.0239Z" fill="white"/>
<path d="M31.7891 31.4438L30.124 30.336L31.7891 31.4438ZM15.9993 37.9998C10.146 37.9998 4.96315 34.9784 1.87469 30.336L-1.45565 32.5516C2.32767 38.2385 8.72506 41.9998 15.9993 41.9998V37.9998ZM30.124 30.336C27.0355 34.9784 21.8527 37.9998 15.9993 37.9998V41.9998C23.2736 41.9998 29.671 38.2385 33.4543 32.5516L30.124 30.336ZM30.9747 27.9999H1.0239V31.9999H30.9747V27.9999ZM33.4543 32.5516C34.8453 30.4607 33.1739 27.9999 30.9747 27.9999V31.9999C30.607 31.9999 30.2683 31.7918 30.0886 31.4775C29.901 31.1495 29.8857 30.6942 30.124 30.336L33.4543 32.5516ZM1.87469 30.336C2.11299 30.6942 2.09767 31.1495 1.91007 31.4775C1.73035 31.7918 1.39162 31.9999 1.0239 31.9999V27.9999C-1.1752 27.9999 -2.84662 30.4607 -1.45565 32.5516L1.87469 30.336Z" fill="#7A321C" mask="url(#path-7-inside-1)"/>
<mask id="path-9-inside-2" fill="white">
<rect x="10.5457" y="19.0908" width="10.9091" height="19.9999" rx="1"/>
</mask>
<rect x="10.5457" y="19.0908" width="10.9091" height="19.9999" rx="1" fill="white" stroke="#7A321C" stroke-width="4" stroke-linejoin="round" mask="url(#path-9-inside-2)"/>
<circle cx="16" cy="26.3636" r="3.54544" stroke="#7A321C" stroke-width="2" stroke-linejoin="round"/>
</svg>
