<svg width="27" height="26" viewBox="0 0 27 26" fill="none" xmlns="http://www.w3.org/2000/svg">
<mask id="path-1-inside-1" fill="white">
<path d="M0 8C0 5.79086 1.79086 4 4 4H23C25.2091 4 27 5.79086 27 8V25C27 25.5523 26.5523 26 26 26H0.999999C0.447715 26 0 25.5523 0 25V8Z"/>
</mask>
<path d="M0 8C0 5.79086 1.79086 4 4 4H23C25.2091 4 27 5.79086 27 8V25C27 25.5523 26.5523 26 26 26H0.999999C0.447715 26 0 25.5523 0 25V8Z" stroke="#7A321C" stroke-width="4" mask="url(#path-1-inside-1)"/>
<path d="M6 18C6 17.4477 6.44772 17 7 17H10C10.5523 17 11 17.4477 11 18V25H6V18Z" stroke="#7A321C" stroke-width="2"/>
<path d="M6 10C6 11.1046 5.10457 12 4 12H2C1.44772 12 1 11.5523 1 11V8C1 6.34315 2.34315 5 4 5H6V10Z" stroke="#7A321C" stroke-width="2"/>
<path d="M11 10C11 11.1046 10.1046 12 9 12H8C6.89543 12 6 11.1046 6 10V5H11V10Z" stroke="#7A321C" stroke-width="2"/>
<path d="M16 10C16 11.1046 15.1046 12 14 12H13C11.8954 12 11 11.1046 11 10V5H16V10Z" stroke="#7A321C" stroke-width="2"/>
<path d="M21 10C21 11.1046 20.1046 12 19 12H18C16.8954 12 16 11.1046 16 10V5H21V10Z" stroke="#7A321C" stroke-width="2"/>
<path d="M26 10C26 11.1046 25.1046 12 24 12H23C21.8954 12 21 11.1046 21 10V5H23C24.6569 5 26 6.34315 26 8V10Z" stroke="#7A321C" stroke-width="2"/>
<path d="M21.5 15.5C22.0523 15.5 22.5 15.9477 22.5 16.5L22.5 19.5C22.5 20.0523 22.0523 20.5 21.5 20.5L15.5 20.5C14.9477 20.5 14.5 20.0523 14.5 19.5L14.5 16.5C14.5 15.9477 14.9477 15.5 15.5 15.5L21.5 15.5Z" stroke="#7A321C" stroke-width="2"/>
<path d="M5.87489 1.4855C6.05561 1.1843 6.38112 1 6.73238 1H21.2676C21.6189 1 21.9444 1.1843 22.1251 1.4855L23.3251 3.48551C23.725 4.15203 23.2449 5 22.4676 5H5.53238C4.75509 5 4.27497 4.15203 4.67489 3.4855L5.87489 1.4855Z" stroke="#7A321C" stroke-width="2" stroke-linejoin="round"/>
</svg>
