<svg width="24" height="24" viewBox="0 0 24 24" fill="none" xmlns="http://www.w3.org/2000/svg">
<path d="M8.25648 15.4743V12.9029L6.0098 10.2857V9.14286H7.04673V10.2857H8.25648V8.52571C8.25648 8.21714 8.0491 8 7.7265 8H5.33004C5.00743 8 4.80005 8.21714 4.80005 8.52571V10.7543L7.04673 13.3714V14.8571H6.0098V13.3714H4.80005V15.4743C4.80005 15.7829 5.00743 16 5.33004 16H7.7265C8.0491 16 8.25648 15.7829 8.25648 15.4743Z" fill="#7A321C"/>
<path d="M12.008 12.5714H11.9734L10.9941 8H9.51934V16H10.7291V12.5714L10.5102 10.2857H10.5678L11.4319 14.4H12.561L13.4021 10.2857H13.4597L13.2638 12.5714V16H14.4736V8H12.9988L12.008 12.5714Z" fill="#7A321C"/>
<path d="M19.2 15.4743V12.9029L16.9534 10.2857V9.14286H17.9903V10.2857H19.2V8.52571C19.2 8.21714 18.9927 8 18.6701 8H16.2736C15.951 8 15.7436 8.21714 15.7436 8.52571V10.7543L17.9903 13.3714V14.8571H16.9534V13.3714H15.7436V15.4743C15.7436 15.7829 15.951 16 16.2736 16H18.6701C18.9927 16 19.2 15.7829 19.2 15.4743Z" fill="#7A321C"/>
<path d="M20.4851 3.51471C18.2186 1.24841 15.2053 0.000183105 12 0C8.79474 0.000183105 5.78119 1.24841 3.51471 3.51471C1.24823 5.78137 -0.000183085 8.79474 2.01393e-08 11.9998C2.01393e-08 14.3377 0.668884 16.5914 1.93726 18.5387L0.961487 22.335C0.899597 22.5758 0.969543 22.8314 1.14532 23.0072C1.32111 23.183 1.5769 23.2529 1.8175 23.191L5.67627 22.1993C7.57379 23.3784 9.75311 24 11.9998 24C15.2051 24 18.2186 22.7518 20.4851 20.4853C22.7518 18.2186 24 15.2053 24 11.9998C23.9998 8.79456 22.7516 5.78119 20.4851 3.51471ZM11.9998 22.5938C9.92322 22.5938 7.91217 21.9924 6.18402 20.855C6.06812 20.7786 5.93353 20.7391 5.7973 20.7391C5.73889 20.7391 5.68011 20.7464 5.62244 20.7612L2.61969 21.533L3.37775 18.5837C3.42847 18.3865 3.39111 18.1769 3.27539 18.0093C2.05261 16.2378 1.40625 14.1597 1.40625 11.9998C1.40607 9.17029 2.50818 6.51013 4.50897 4.50916C6.50995 2.50836 9.17029 1.40625 12 1.40625C17.8412 1.40643 22.5936 6.15875 22.5938 11.9998C22.5938 17.8412 17.8412 22.5938 11.9998 22.5938Z" fill="#7A321C"/>
</svg>
