<svg width="24" height="24" viewBox="0 0 24 24" fill="none" xmlns="http://www.w3.org/2000/svg">
<path d="M12.2188 0C5.71059 0 0.436235 5.23341 0.436235 11.6908C0.436235 13.8988 1.05459 15.9656 2.12612 17.7275L0 24L6.52235 21.9275C8.21082 22.8536 10.152 23.3816 12.2174 23.3816C18.7242 23.3816 24 18.1482 24 11.6908C24 5.23341 18.7256 0 12.2188 0Z" fill="#3FBB3F"/>
<path d="M18.4966 14.2462C18.1691 14.0839 16.5597 13.2989 16.2604 13.1902C15.9597 13.0815 15.7423 13.0279 15.5234 13.3526C15.3046 13.6773 14.6792 14.4086 14.4872 14.6246C14.2966 14.842 14.106 14.8688 13.7785 14.7064C13.451 14.5441 12.3978 14.201 11.147 13.0956C10.1757 12.2359 9.5192 11.1742 9.32861 10.8481C9.13802 10.5234 9.30885 10.3483 9.47261 10.186C9.61944 10.0406 9.80014 9.80621 9.96391 9.61704C10.1277 9.42786 10.1827 9.29233 10.2914 9.07492C10.3987 8.86033 10.3451 8.66974 10.2632 8.50739C10.1813 8.34504 9.52626 6.74833 9.25379 6.09751C8.98132 5.44809 8.68343 5.52856 8.49285 5.52856C8.30226 5.52856 8.10885 5.52856 7.89144 5.52856C7.67261 5.52856 7.31826 5.61045 7.01897 5.93515C6.71967 6.25986 5.87402 7.04621 5.87402 8.64292C5.87402 10.2396 7.04579 11.7841 7.20955 12.0001C7.37332 12.2161 9.47261 15.6001 12.7973 16.9003C16.1234 18.1992 16.1234 17.7657 16.7234 17.7121C17.322 17.6584 18.6576 16.9272 18.9314 16.169C19.2039 15.4109 19.2039 14.7601 19.122 14.6246C19.0416 14.4904 18.8227 14.4086 18.4966 14.2462Z" fill="white"/>
</svg>
