<?xml version="1.0" encoding="utf-8"?><svg viewBox="0 0 36 30" xmlns="http://www.w3.org/2000/svg" xmlns:xlink="http://www.w3.org/1999/xlink"><style>:root>svg{display:none}:root>svg:target{display:block}</style><svg fill="none" viewBox="0 0 30 8" id="ic_arrow_left_long" xmlns="http://www.w3.org/2000/svg"><path d="M29 4.5a.5.5 0 0 0 0-1v1zM.646 3.646a.5.5 0 0 0 0 .708l3.182 3.182a.5.5 0 1 0 .708-.708L1.707 4l2.829-2.828a.5.5 0 1 0-.708-.708L.646 3.646zM29 3.5H1v1h28v-1z" fill="currentColor"/></svg><svg fill="none" viewBox="0 0 13 8" id="ic_arrow_right" xmlns="http://www.w3.org/2000/svg"><path d="M12.354 4.354a.5.5 0 0 0 0-.708L9.172.464a.5.5 0 1 0-.708.708L11.293 4 8.464 6.828a.5.5 0 1 0 .708.708l3.182-3.182zM0 4.5h12v-1H0v1z" fill="currentColor"/></svg><svg fill="none" viewBox="0 0 21 12" id="ic_arrow_top" xmlns="http://www.w3.org/2000/svg"><path fill-rule="evenodd" clip-rule="evenodd" d="M10.795.029a1.229 1.229 0 0 0-1.038.349L1.062 9.073a1.23 1.23 0 1 0 1.74 1.74l7.832-7.832 7.833 7.834a1.23 1.23 0 1 0 1.74-1.74L11.513.38a1.225 1.225 0 0 0-.718-.351z" fill="currentColor"/></svg><svg fill="none" viewBox="0 0 18 12" id="ic_burger" xmlns="http://www.w3.org/2000/svg"><rect width="18" height="2" rx="1" fill="currentColor"/><rect y="5" width="18" height="2" rx="1" fill="currentColor"/><rect y="10" width="18" height="2" rx="1" fill="currentColor"/></svg><svg fill="none" viewBox="0 0 23 22" id="ic_cart" xmlns="http://www.w3.org/2000/svg"><path fill-rule="evenodd" clip-rule="evenodd" d="M0 1.344a1.1 1.1 0 0 1 1.1-1.1h2.854A1.1 1.1 0 0 1 4.998 1l1.623 3.906c.18-.13.402-.205.64-.205h14.5a1.1 1.1 0 0 1 1.072 1.348l-1.853 8a1.1 1.1 0 0 1-1.072.851H8.396a1.1 1.1 0 0 1-1.045-.755l-4.193-11.7H1.1a1.1 1.1 0 0 1-1.1-1.1zm7.28 5.557l1.911 5.8h9.843l1.344-5.8H7.279zM8.997 19.8a.8.8 0 1 0 0-1.6.8.8 0 0 0 0 1.6zm0 2.2a3 3 0 1 0 0-6 3 3 0 0 0 0 6zm9.8-3a.8.8 0 1 1-1.6 0 .8.8 0 0 1 1.6 0zm2.2 0a3 3 0 1 1-6 0 3 3 0 0 1 6 0z" fill="currentColor"/></svg><svg fill="none" viewBox="0 0 10 8" id="ic_check" xmlns="http://www.w3.org/2000/svg"><path d="M1 3l3 3 5-5" stroke="currentColor" stroke-width="2" stroke-linecap="round"/></svg><svg fill="none" viewBox="0 0 16 16" id="ic_close" xmlns="http://www.w3.org/2000/svg"><rect x="2.343" y=".929" width="18" height="2" rx="1" transform="rotate(45 2.343 .929)" fill="currentColor"/><rect width="18" height="2" rx="1" transform="scale(-1 1) rotate(45 -7.95 -16.021)" fill="currentColor"/></svg><svg fill="none" viewBox="0 0 36 26" id="ic_delivery" xmlns="http://www.w3.org/2000/svg"><path d="M27.189 16.403a4.543 4.543 0 0 0-4.538 4.538 4.543 4.543 0 0 0 4.538 4.538 4.543 4.543 0 0 0 4.538-4.538 4.543 4.543 0 0 0-4.538-4.538zm0 6.807a2.271 2.271 0 0 1-2.269-2.269 2.271 2.271 0 0 1 2.269-2.269 2.271 2.271 0 0 1 2.269 2.27 2.271 2.271 0 0 1-2.269 2.268zM11.685 16.403a4.543 4.543 0 0 0-4.538 4.538 4.543 4.543 0 0 0 4.538 4.538 4.543 4.543 0 0 0 4.538-4.538 4.543 4.543 0 0 0-4.538-4.538zm0 6.807a2.271 2.271 0 0 1-2.269-2.269 2.271 2.271 0 0 1 2.269-2.269 2.272 2.272 0 0 1 2.269 2.27 2.271 2.271 0 0 1-2.269 2.268zM30.245 3.415a1.135 1.135 0 0 0-1.014-.625h-5.975v2.269h5.276l3.089 6.144 2.027-1.02-3.403-6.768z" fill="currentColor"/><path d="M23.786 19.845h-8.584v2.268h8.584v-2.268zM8.281 19.845H4.35a1.134 1.134 0 1 0 0 2.268h3.933a1.134 1.134 0 1 0 0-2.268zM35.762 12.91l-2.232-2.875a1.133 1.133 0 0 0-.895-.438H24.39V1.655c0-.626-.508-1.134-1.135-1.134H4.35a1.134 1.134 0 1 0 0 2.269h17.773v7.941c0 .627.508 1.134 1.134 1.134h8.823l1.652 2.129v5.85h-3.139a1.134 1.134 0 1 0 0 2.27h4.273c.627 0 1.135-.509 1.135-1.135v-7.374c0-.252-.084-.497-.238-.696zM8.206 14.097H2.987a1.134 1.134 0 1 0 0 2.269h5.219a1.134 1.134 0 1 0 0-2.27zM10.815 9.634h-9.68a1.134 1.134 0 1 0 0 2.27h9.68a1.134 1.134 0 1 0 0-2.27z" fill="currentColor"/><path d="M12.668 5.172h-9.68a1.134 1.134 0 1 0 0 2.27h9.68a1.134 1.134 0 1 0 0-2.27z" fill="currentColor"/></svg><svg fill="none" viewBox="0 0 16 14" id="ic_email" xmlns="http://www.w3.org/2000/svg"><rect x="15" y="1.5" width="10.571" height="14" rx="1" transform="rotate(90 15 1.5)" stroke="currentColor" stroke-width="2"/><path transform="scale(1.0302 .96886) rotate(45 -2.759 1.143)" stroke="currentColor" stroke-width="2" d="M0-1h10.982"/><path transform="matrix(.72846 -.68509 .72846 .68509 8 9.738)" stroke="currentColor" stroke-width="2" d="M0-1h10.982"/></svg><svg fill="none" viewBox="0 0 12 20" id="ic_facebook" xmlns="http://www.w3.org/2000/svg"><path d="M11 .004L8.405 0C5.492 0 3.609 1.932 3.609 4.922v2.27H1.002a.408.408 0 0 0-.408.407v3.288c0 .226.182.408.408.408h2.607v8.297c0 .226.183.408.408.408h3.402a.408.408 0 0 0 .408-.408v-8.297h3.05a.408.408 0 0 0 .407-.408l.001-3.288a.408.408 0 0 0-.408-.408h-3.05V5.268c0-.925.22-1.394 1.425-1.394l1.747-.001a.408.408 0 0 0 .408-.408V.412a.408.408 0 0 0-.408-.408z" fill="currentColor"/></svg><svg fill="none" viewBox="0 0 23 21" id="ic_favorite" xmlns="http://www.w3.org/2000/svg"><path d="M16.675 0c-2.001 0-3.921.927-5.175 2.392C10.246.927 8.326 0 6.325 0 2.783 0 0 2.77 0 6.294c0 4.326 3.91 7.851 9.832 13.207L11.5 21l1.668-1.51C19.09 14.144 23 10.62 23 6.293 23 2.77 20.217 0 16.675 0zm-5.06 17.796l-.115.114-.115-.114C5.911 12.863 2.3 9.602 2.3 6.294c0-2.289 1.725-4.005 4.025-4.005 1.771 0 3.496 1.133 4.106 2.7h2.15c.598-1.567 2.323-2.7 4.094-2.7 2.3 0 4.025 1.716 4.025 4.005 0 3.308-3.611 6.57-9.085 11.502z" fill="currentColor"/></svg><svg fill="none" viewBox="0 0 23 21" id="ic_favorite2" xmlns="http://www.w3.org/2000/svg"><path d="M16.675 0c-2.001 0-3.921.927-5.175 2.392C10.246.927 8.326 0 6.325 0 2.783 0 0 2.77 0 6.294c0 4.326 3.91 7.851 9.832 13.207L11.5 21l1.668-1.51C19.09 14.144 23 10.62 23 6.293 23 2.77 20.217 0 16.675 0z" fill="currentColor"/></svg><svg fill="none" viewBox="0 0 30 30" id="ic_guarantee" xmlns="http://www.w3.org/2000/svg"><path d="M29.823 10.35c-.388-1.147-1.32-1.87-2.143-2.507-.439-.341-.854-.663-1.094-.978-.244-.322-.437-.803-.641-1.312-.379-.942-.808-2.009-1.801-2.702-.972-.68-2.144-.742-3.178-.797-.581-.031-1.13-.06-1.548-.191-.383-.119-.826-.395-1.294-.688C17.242.625 16.241 0 15 0s-2.241.624-3.123 1.175c-.469.293-.91.569-1.294.689-.418.13-.967.159-1.55.19-1.032.056-2.204.118-3.177.797-.993.693-1.421 1.76-1.8 2.701-.204.51-.398.99-.643 1.314-.24.316-.655.638-1.095.978-.82.638-1.753 1.36-2.14 2.506-.377 1.113-.074 2.213.193 3.182.149.54.29 1.05.29 1.467 0 .418-.141.928-.29 1.468-.267.97-.57 2.069-.193 3.183.388 1.146 1.32 1.867 2.141 2.505.44.34.855.662 1.094.978.245.322.438.803.643 1.313.378.942.808 2.009 1.802 2.703.972.678 2.143.74 3.176.795.582.031 1.131.06 1.549.19.383.12.824.396 1.292.689.882.551 1.883 1.175 3.125 1.175 1.243 0 2.244-.624 3.126-1.175.468-.293.91-.568 1.293-.688.418-.13.967-.16 1.549-.191 1.033-.055 2.204-.117 3.177-.796.994-.693 1.422-1.761 1.802-2.704.204-.509.397-.99.64-1.31.24-.317.655-.638 1.095-.979.821-.637 1.754-1.36 2.142-2.505.377-1.114.074-2.213-.194-3.184-.15-.54-.29-1.05-.29-1.467 0-.418.14-.928.29-1.468.268-.969.57-2.069.194-3.18zm-2.604 6.782c.18.653.367 1.33.236 1.716-.146.434-.736.89-1.306 1.332-.548.425-1.114.864-1.554 1.443-.446.588-.712 1.25-.97 1.89-.272.677-.53 1.318-.912 1.585-.387.271-1.111.31-1.879.35-.71.039-1.444.077-2.159.3-.69.215-1.291.59-1.873.954-.657.41-1.276.796-1.803.796-.526 0-1.145-.387-1.8-.795-.583-.363-1.184-.74-1.874-.954-.716-.223-1.45-.262-2.159-.3-.768-.04-1.492-.08-1.878-.35-.383-.267-.64-.907-.914-1.585-.257-.64-.524-1.302-.971-1.89-.439-.58-1.005-1.02-1.553-1.444-.57-.441-1.159-.898-1.305-1.331-.131-.387.055-1.064.235-1.718.177-.645.379-1.376.379-2.131 0-.756-.202-1.486-.38-2.132-.179-.653-.365-1.329-.234-1.717.146-.432.735-.89 1.304-1.33.549-.426 1.116-.866 1.554-1.444.447-.59.714-1.252.972-1.892.272-.677.53-1.317.911-1.584.388-.27 1.113-.31 1.88-.35.71-.039 1.443-.078 2.158-.3.691-.215 1.293-.591 1.876-.954.655-.411 1.274-.797 1.8-.797.525 0 1.144.386 1.8.795.583.364 1.185.74 1.875.954.716.222 1.449.262 2.158.3.767.04 1.492.08 1.88.351.382.267.639.907.911 1.584.258.64.524 1.302.972 1.892.44.578 1.005 1.017 1.553 1.442.57.441 1.159.899 1.306 1.332.131.387-.056 1.063-.236 1.717-.178.645-.38 1.376-.38 2.132 0 .756.202 1.487.38 2.133z" fill="currentColor"/><path d="M20.624 15A5.63 5.63 0 0 1 15 20.627 5.63 5.63 0 0 1 9.374 15a5.63 5.63 0 0 1 5.624-5.625h1.25v-2.5H15c-4.48 0-8.124 3.645-8.124 8.125s3.645 8.124 8.124 8.124c4.48 0 8.125-3.644 8.125-8.124v-1.25h-2.5v1.25z" fill="currentColor"/><path d="M13.75 11.981l-1.768 1.768 3.017 3.017 6.768-6.767-1.768-1.768-5 5-1.25-1.25z" fill="currentColor"/></svg><svg fill="none" viewBox="0 0 21 21" id="ic_instagram" xmlns="http://www.w3.org/2000/svg"><path d="M5.3 0h9.9c1.5 0 2.8.6 3.7 1.6 1 1 1.6 2.3 1.6 3.7v9.9c0 1.5-.6 2.8-1.6 3.7-1 1-2.3 1.6-3.7 1.6H5.3c-1.5 0-2.8-.6-3.7-1.6-1-1-1.6-2.3-1.6-3.7V5.3c0-1.5.6-2.8 1.6-3.7C2.5.6 3.8 0 5.3 0zm9.9 4.1c.7 0 1.4.6 1.4 1.4 0 .7-.6 1.4-1.4 1.4-.7 0-1.4-.6-1.4-1.4 0-.8.6-1.4 1.4-1.4zm-4.9 1.2c1.4 0 2.6.6 3.5 1.5.9.9 1.5 2.1 1.5 3.5s-.6 2.6-1.5 3.5c-.9.9-2.1 1.5-3.5 1.5s-2.6-.6-3.5-1.5c-.9-.9-1.5-2.1-1.5-3.5s.6-2.6 1.5-3.5c.8-1 2.1-1.5 3.5-1.5zm1.4 3.5c-.4-.4-.9-.6-1.4-.6-.5 0-1 .2-1.4.6-.4.4-.6.9-.6 1.4 0 .5.2 1 .6 1.4.4.4.9.6 1.4.6.5 0 1-.2 1.4-.6.4-.4.6-.9.6-1.4-.1-.5-.3-1-.6-1.4zM15.2 3H5.3c-.6 0-1.2.3-1.6.7-.4.4-.7 1-.7 1.6v9.9c0 .6.3 1.2.7 1.6.4.4 1 .7 1.6.7h9.9c.6 0 1.2-.3 1.6-.7.4-.4.7-1 .7-1.6V5.3c0-.6-.3-1.2-.7-1.6-.4-.4-1-.7-1.6-.7z" fill="currentColor"/></svg><svg fill="none" viewBox="0 0 18 18" id="ic_logout" xmlns="http://www.w3.org/2000/svg"><rect x=".5" y=".5" width="10" height="17" rx="1.5" stroke="currentColor"/><path d="M17.354 9.354a.5.5 0 0 0 0-.708l-3.182-3.182a.5.5 0 1 0-.708.708L16.293 9l-2.829 2.828a.5.5 0 1 0 .708.708l3.182-3.182zM5 9.5h12v-1H5v1z" fill="currentColor"/></svg><svg fill="none" viewBox="0 0 12 15" id="ic_mobile" xmlns="http://www.w3.org/2000/svg"><rect x="1" y="1" width="10" height="13" rx="1" stroke="currentColor" stroke-width="2"/><path fill="currentColor" d="M5 9h2v2H5z"/></svg><svg fill="none" viewBox="0 0 14 20" id="ic_odnokl" xmlns="http://www.w3.org/2000/svg"><path d="M6.016 14.088c-1.55-.162-2.949-.544-4.145-1.48-.149-.117-.302-.229-.438-.359-.524-.503-.576-1.08-.162-1.673.355-.508.95-.644 1.569-.353.12.057.234.128.343.203 2.23 1.533 5.295 1.575 7.534.07.222-.17.459-.31.734-.38.534-.137 1.032.059 1.32.526.327.534.322 1.056-.081 1.47-.62.636-1.364 1.095-2.191 1.416-.783.303-1.64.456-2.488.558.128.139.189.207.269.288 1.151 1.157 2.308 2.31 3.456 3.47.39.395.473.886.257 1.346-.235.502-.762.833-1.279.798-.327-.023-.583-.186-.81-.414-.869-.875-1.754-1.733-2.606-2.624-.247-.26-.367-.21-.585.015-.875.9-1.763 1.786-2.657 2.667-.401.396-.879.467-1.344.24-.495-.239-.81-.744-.786-1.252.017-.343.186-.605.422-.84 1.14-1.138 2.276-2.28 3.413-3.42.075-.075.145-.155.255-.272z" fill="currentColor"/><path d="M6.96 10.123c-2.766-.01-5.034-2.302-5.018-5.073A5.07 5.07 0 0 1 7.022 0c2.798.008 5.045 2.297 5.03 5.127-.014 2.765-2.298 5.006-5.092 4.996zm2.514-5.066a2.465 2.465 0 0 0-2.473-2.472 2.469 2.469 0 0 0-2.479 2.502A2.465 2.465 0 0 0 7.014 7.54a2.46 2.46 0 0 0 2.46-2.483z" fill="currentColor"/></svg><svg fill="none" viewBox="0 0 18 18" id="ic_phone" xmlns="http://www.w3.org/2000/svg"><path d="M14.432 8.868a.875.875 0 0 0-1.237 0l-1.369 1.369-4.063-4.063 1.37-1.369a.874.874 0 0 0 0-1.236L5.82.256a.874.874 0 0 0-1.236 0L.94 3.9a3.221 3.221 0 0 0 0 4.549l8.612 8.612c.605.605 1.413.939 2.274.939.86 0 1.668-.334 2.274-.94l3.644-3.643a.874.874 0 0 0 0-1.237l-3.312-3.312zm-1.568 6.956a1.456 1.456 0 0 1-1.038.427c-.394 0-.762-.152-1.038-.427l-8.61-8.612a1.47 1.47 0 0 1 0-2.075L5.201 2.11l2.075 2.076-1.369 1.369a.874.874 0 0 0 0 1.237l5.3 5.299a.874.874 0 0 0 1.236 0l1.37-1.369 2.075 2.076-3.025 3.025z" fill="currentColor"/></svg><svg fill="none" viewBox="0 0 19 20" id="ic_search" xmlns="http://www.w3.org/2000/svg"><path fill-rule="evenodd" clip-rule="evenodd" d="M18.704 18.234a1.04 1.04 0 0 1-1.469 1.47l-3.939-3.939c-.051-.051-.077-.115-.115-.173A8.5 8.5 0 1 1 17 8.5a8.46 8.46 0 0 1-2.272 5.771c.011.01.026.014.037.025l3.939 3.938zM8.5 2a6.5 6.5 0 1 0 0 13 6.5 6.5 0 0 0 0-13z" fill="currentColor"/></svg><svg fill="none" viewBox="0 0 7 12" id="ic_slider_arrow" xmlns="http://www.w3.org/2000/svg"><path d="M6 1L1.707 5.293a1 1 0 0 0 0 1.414L6 11" stroke="currentColor" stroke-width="2" stroke-linecap="round"/></svg><svg fill="none" viewBox="0 0 14 14" id="ic_time" xmlns="http://www.w3.org/2000/svg"><circle cx="7" cy="7" r="6" stroke="currentColor" stroke-width="2"/><path stroke="currentColor" stroke-width="2" stroke-linecap="round" d="M7 4v3M7 7h3"/></svg><svg fill="none" viewBox="0 0 22 18" id="ic_twitter" xmlns="http://www.w3.org/2000/svg"><path d="M21.555.787a1.084 1.084 0 0 0-1.186-.06c-.37.218-1.192.325-1.85.412l-.401.054A5.209 5.209 0 0 0 14.803 0c-2.736 0-4.981 2.116-5.14 4.777a10.55 10.55 0 0 1-6.364-3.653 1.082 1.082 0 0 0-1.828.254C1.4 1.536.797 3.023.797 6.7c0 3.184 2.515 5.524 4.24 6.755-1.18.536-2.54.733-3.832.59a1.084 1.084 0 0 0-.7 1.992A12.752 12.752 0 0 0 7.315 18c7.767 0 12.468-6.097 12.642-12.108a97.21 97.21 0 0 0 1.369-2.06c.288-.444.53-1.403.648-1.935a1.081 1.081 0 0 0-.42-1.11zm-3.552 4.12a1.085 1.085 0 0 0-.206.635c0 4.274-3.252 10.293-10.48 10.293-.654 0-1.302-.06-1.937-.177a9.297 9.297 0 0 0 2.384-1.334 1.083 1.083 0 0 0-.172-1.823c-.047-.024-4.627-2.43-4.627-5.8 0-1.13.06-2.017.14-2.693a12.764 12.764 0 0 0 7.683 3.065c.022.001.045.002.065.001.63-.018 1.095-.48 1.095-1.082 0-.15-.03-.292-.086-.421a2.972 2.972 0 0 1-.041-.49c0-1.608 1.337-2.916 2.982-2.916.825 0 1.62.338 2.18.926.256.266.63.387.99.316.246-.046.53-.083.828-.122l.323-.043a54.482 54.482 0 0 1-1.121 1.666z" fill="currentColor"/></svg><svg fill="none" viewBox="0 0 24 24" id="ic_user" xmlns="http://www.w3.org/2000/svg"><path fill-rule="evenodd" clip-rule="evenodd" d="M19.425 20.708a11.807 11.807 0 0 0-7.453-2.635 11.81 11.81 0 0 0-7.641 2.79l-1.499-1.349a13.803 13.803 0 0 1 9.14-3.441 13.8 13.8 0 0 1 8.874 3.214l-1.421 1.42z" fill="currentColor"/><circle cx="12" cy="12" r="4" stroke="currentColor" stroke-width="2"/><path d="M12 24c6.617 0 12-5.383 12-12S18.617 0 12 0 0 5.383 0 12s5.383 12 12 12zm0-22.5c5.79 0 10.5 4.71 10.5 10.5S17.79 22.5 12 22.5 1.5 17.79 1.5 12 6.21 1.5 12 1.5z" fill="currentColor"/></svg><svg fill="none" viewBox="0 0 22 14" id="ic_vkontakte" xmlns="http://www.w3.org/2000/svg"><path d="M21.883 12.06a1.505 1.505 0 0 0-.074-.143c-.382-.688-1.111-1.531-2.188-2.532l-.023-.023-.011-.011-.012-.012h-.011c-.489-.465-.798-.779-.928-.939-.237-.305-.29-.615-.16-.928.091-.237.435-.737 1.03-1.5.314-.405.562-.73.745-.974 1.321-1.756 1.894-2.879 1.718-3.367l-.068-.115c-.046-.068-.164-.131-.355-.189-.191-.057-.436-.066-.733-.028l-3.3.022a.428.428 0 0 0-.228.006l-.15.035-.057.028-.045.035a.508.508 0 0 0-.126.12.787.787 0 0 0-.115.2c-.359.924-.767 1.784-1.225 2.578-.283.473-.542.884-.78 1.231a5.922 5.922 0 0 1-.595.767c-.16.165-.305.296-.435.396-.13.099-.23.141-.298.126a8.29 8.29 0 0 1-.195-.046.761.761 0 0 1-.257-.28 1.256 1.256 0 0 1-.132-.448 4.903 4.903 0 0 1-.04-.464 9.701 9.701 0 0 1 .005-.55c.008-.236.012-.397.012-.48 0-.29.006-.606.017-.946.012-.34.02-.609.029-.807.008-.199.011-.409.011-.63 0-.221-.013-.395-.04-.521a1.784 1.784 0 0 0-.12-.367.617.617 0 0 0-.235-.275 1.323 1.323 0 0 0-.383-.154c-.405-.092-.92-.142-1.547-.15-1.42-.014-2.333.077-2.738.276-.16.084-.305.198-.435.343-.137.168-.156.26-.057.275.458.069.782.233.973.493l.07.137c.053.1.106.275.16.527.053.252.087.53.103.836a8.915 8.915 0 0 1 0 1.432c-.039.397-.075.706-.11.928-.034.221-.085.4-.154.538a2.273 2.273 0 0 1-.137.252.197.197 0 0 1-.058.057.858.858 0 0 1-.309.058c-.107 0-.237-.054-.39-.16a2.748 2.748 0 0 1-.475-.442 5.896 5.896 0 0 1-.555-.784c-.206-.336-.42-.733-.642-1.192l-.183-.332a28.575 28.575 0 0 1-.47-.933 17.998 17.998 0 0 1-.526-1.186.755.755 0 0 0-.275-.367l-.058-.034a.784.784 0 0 0-.183-.097 1.216 1.216 0 0 0-.263-.075l-3.139.023c-.32 0-.538.073-.653.218l-.046.068A.37.37 0 0 0 0 1.768c0 .084.023.187.069.309a37.801 37.801 0 0 0 1.495 3.116c.538 1 1.006 1.806 1.403 2.416.397.611.801 1.188 1.214 1.73.412.542.685.89.819 1.042.133.153.238.268.315.344L5.6 11a6.8 6.8 0 0 0 .808.659c.355.255.748.507 1.18.756a6.4 6.4 0 0 0 1.506.607c.573.156 1.13.22 1.672.189h1.318c.267-.023.47-.107.607-.252l.045-.058a.762.762 0 0 0 .086-.211c.027-.096.04-.201.04-.315a3.777 3.777 0 0 1 .075-.888c.057-.263.122-.462.194-.596a1.467 1.467 0 0 1 .442-.504.762.762 0 0 1 .091-.04c.183-.06.399-.002.647.178.249.18.481.401.7.665.217.263.478.559.784.887.305.329.573.573.802.733l.229.138c.152.091.351.175.595.252.244.076.458.095.642.057l2.932-.046c.29 0 .516-.048.676-.143.16-.095.255-.2.286-.315a.886.886 0 0 0 .006-.39 1.439 1.439 0 0 0-.08-.303z" fill="currentColor"/></svg></svg>